# Blender 4.3.2
# www.blender.org
mtllib Office.mtl
o Plane
v -3.000000 0.000000 3.000000
v 3.000000 0.000000 3.000000
v -3.000000 0.000000 -3.000000
v 3.000000 0.000000 -3.000000
v 3.000000 0.000000 3.000000
v -3.000000 0.000000 -3.000000
v 3.000000 0.000000 -3.000000
v 3.000000 0.000000 3.000000
v -3.000000 0.000000 -3.000000
v 3.000000 0.000000 -3.000000
v 3.000000 0.000000 3.000000
v -3.000000 0.000000 -3.000000
v 3.000000 0.000000 -3.000000
v 3.000000 0.000000 3.000000
v -3.000000 0.000000 -3.000000
v 3.000000 0.000000 -3.000000
v 3.000000 0.000000 3.000000
v -3.000000 0.000000 -3.000000
v 3.000000 0.000000 -3.000000
v 3.000000 1.689654 3.000000
v -3.000000 1.689654 -3.000000
v 3.000000 1.689654 -3.000000
v 3.000000 0.000000 0.000000
v 3.000000 0.000000 1.500000
v 3.000000 0.000000 0.750000
v 3.000000 0.000000 1.125000
v 3.000000 0.000000 0.937500
v 3.000000 0.000000 0.843750
v 3.000000 0.000000 -2.779854
v 3.000000 1.689654 -2.779854
v 3.000000 0.000000 -1.532771
v 3.000000 1.689654 -1.532771
v 3.000000 1.532164 -3.000000
v -3.000000 1.532164 -3.000000
v 3.000000 1.532164 3.000000
v 3.000000 1.532164 -2.779854
v 3.000000 1.532164 -1.532771
v 3.000000 0.562623 -3.000000
v 3.000000 0.562623 3.000000
v -3.000000 0.562623 -3.000000
v 3.000000 0.562623 -2.779854
v 3.000000 0.562623 -1.532771
v 3.130347 0.577718 -2.734568
v 3.130347 1.517069 -2.734568
v 3.130347 0.577718 -1.578056
v 3.130347 1.517069 -1.578056
v 3.130347 0.562623 -2.779854
v 3.130347 1.532164 -2.779854
v 3.130347 0.562623 -1.532771
v 3.130347 1.532164 -1.532771
vn -0.0000 1.0000 -0.0000
vn -0.0000 -0.0000 1.0000
vn -1.0000 -0.0000 -0.0000
vn -0.0000 -1.0000 -0.0000
vn -0.0000 -0.0000 -1.0000
vn 1.0000 -0.0000 -0.0000
vt 0.422725 0.499987
vt 0.422725 0.000115
vt 0.922598 0.000115
vt 0.922598 0.499987
vt 0.039484 0.499938
vt 0.000115 0.499924
vt 0.000115 0.999885
vt 0.039471 0.999883
vt 0.039489 0.481600
vt 0.000120 0.481587
vt 0.039518 0.377718
vt 0.000152 0.377708
vt 0.039620 0.000138
vt 0.000265 0.000140
vt 0.281901 0.000123
vt 0.281863 0.377780
vt 0.281853 0.481683
vt 0.281851 0.500025
vt 0.281751 0.999868
vt 0.422496 0.500076
vt 0.422346 0.999860
vt 0.422496 0.481732
vt 0.422496 0.377816
vt 0.422496 0.000115
vt 0.043264 0.477829
vt 0.278080 0.477909
vt 0.278089 0.381552
vt 0.043290 0.381491
s 0
usemtl Floor.001
f 1/1/1 2/2/1 4/3/1 3/4/1
f 33/5/2 22/6/2 21/7/2 34/8/2
f 36/9/3 30/10/3 22/6/3 33/5/3
f 37/11/3 32/12/3 30/10/3 36/9/3
f 35/13/3 20/14/3 32/12/3 37/11/3
f 39/15/3 35/13/3 37/11/3 42/16/3
f 36/9/4 48/9/4 50/11/4 37/11/4
f 41/17/3 36/9/3 33/5/3 38/18/3
f 38/18/2 33/5/2 34/8/2 40/19/2
f 19/20/2 38/18/2 40/19/2 18/21/2
f 29/22/3 41/17/3 38/18/3 19/20/3
f 31/23/3 42/16/3 41/17/3 29/22/3
f 17/24/3 39/15/3 42/16/3 31/23/3
f 37/11/5 50/11/5 49/16/5 42/16/5
f 42/16/1 49/16/1 47/17/1 41/17/1
f 41/17/2 47/17/2 48/9/2 36/9/2
f 44/25/3 48/9/3 47/17/3 43/26/3
f 45/27/6 46/28/6 50/11/6 49/16/6
f 46/28/3 50/11/3 48/9/3 44/25/3
f 43/26/3 47/17/3 49/16/3 45/27/3
l 7 5
l 6 7
l 10 8
l 9 10
l 13 11
l 12 13
l 24 14
l 15 16
l 16 23
l 26 24
l 23 25
l 27 26
l 28 27
l 25 28
