# Blender 4.3.2
# www.blender.org
mtllib office.mtl
o Plane
v -2.000000 0.000000 2.000000
v 2.000000 0.000000 2.000000
v -2.000000 0.000000 -2.000000
v 2.000000 0.000000 -2.000000
v -2.000000 2.000000 2.000000
v -2.000000 2.000000 -2.000000
v 2.000000 2.000000 -2.000000
v -1.808507 0.000000 2.000000
v -1.808507 0.000000 -2.000000
v -1.808507 2.000000 -2.000000
v 0.061251 0.000000 2.000000
v 0.061251 0.000000 -2.000000
v 0.061251 2.000000 -2.000000
v -2.000000 1.842195 -2.000000
v 2.000000 1.842195 -2.000000
v -2.000000 1.842195 2.000000
v -1.808507 1.842195 -2.000000
v 0.061251 1.842195 -2.000000
v -2.000000 0.923068 -2.000000
v -2.000000 0.923068 2.000000
v 2.000000 0.923068 -2.000000
v -1.808507 0.923068 -2.000000
v 0.061251 0.923068 -2.000000
v -1.735606 0.959518 -2.050000
v -1.735606 1.805745 -2.050000
v -0.003115 0.955251 -2.050000
v -0.003115 1.810012 -2.050000
v -0.843225 0.000000 -2.000000
v -0.843225 2.000000 -2.000000
v -0.843225 0.000000 2.000000
v -0.843225 1.842195 -2.000000
v -0.843225 0.923068 -2.000000
v -0.778859 1.810012 -2.050000
v -0.778859 0.955251 -2.050000
v -0.911973 0.000000 -2.000000
v -0.911973 2.000000 -2.000000
v -0.911973 1.842195 -2.000000
v -0.911973 0.923068 -2.000000
v -0.984873 1.805745 -2.050000
v -0.984873 0.959518 -2.050000
v -0.911973 0.000000 2.000000
v -1.808507 0.923068 -2.050000
v -1.808507 1.842195 -2.050000
v -0.911973 1.842195 -2.050000
v -0.911973 0.923068 -2.050000
v 0.061251 0.923068 -2.050000
v 0.061251 1.842195 -2.050000
v -0.843225 1.842195 -2.050000
v -0.843225 0.923068 -2.050000
v -0.003115 0.955251 -2.070000
v -0.003115 1.810012 -2.070000
v -0.778859 1.810012 -2.070000
v -0.778859 0.955251 -2.070000
v -1.735606 0.959518 -2.070000
v -1.735606 1.805745 -2.070000
v -0.984873 1.805745 -2.070000
v -0.984873 0.959518 -2.070000
vn -0.0000 1.0000 -0.0000
vn -0.0000 -0.0000 1.0000
vn 1.0000 -0.0000 -0.0000
vn -1.0000 -0.0000 -0.0000
vn -0.0000 -1.0000 -0.0000
vt 0.000000 0.242344
vt 0.000000 0.000000
vt 0.500000 0.000000
vt 0.500000 0.242344
vt 0.039451 0.757656
vt 0.039451 1.000000
vt -0.000000 1.000000
vt 0.000000 0.757656
vt 0.539451 -0.000000
vt 0.539451 0.500000
vt 0.500000 0.500000
vt 0.500000 -0.000000
vt 0.039451 0.500000
vt 0.039451 0.523937
vt 0.000000 0.523937
vt 0.000000 0.500000
vt 0.000000 0.476063
vt 0.500000 0.476063
vt 0.500000 0.500000
vt 0.039451 0.644597
vt 0.000000 0.644597
vt 0.000000 0.355403
vt 0.500000 0.355403
vt 0.729782 0.613060
vt 0.729782 0.500000
vt 0.736032 0.500000
vt 0.736032 0.613060
vt 0.269233 0.500000
vt 0.269233 0.523937
vt 0.769233 -0.000000
vt 0.769233 0.500000
vt 0.269233 0.757656
vt 0.269233 1.000000
vt 0.500000 0.757656
vt 0.500000 1.000000
vt 1.000000 0.000000
vt 1.000000 0.500000
vt 0.500000 0.523937
vt 0.500000 0.644597
vt 0.269233 0.644597
vt 0.751032 0.500000
vt 0.751032 0.713690
vt 0.748532 0.713690
vt 0.748532 0.500000
vt 0.736032 0.729782
vt 0.742282 0.500000
vt 0.742282 0.729782
vt 0.272007 1.000000
vt 0.047873 1.000000
vt 0.272007 1.000000
vt 0.748532 0.500000
vt 0.748532 0.729782
vt 0.515313 1.000000
vt 0.289194 1.000000
vt 0.289194 1.000000
vt 0.729782 0.612067
vt 0.729782 0.620660
vt 0.500000 0.620660
vt 0.500000 0.612067
vt 0.500000 0.636003
vt 0.269233 0.636003
vt 0.729782 0.621653
vt 0.736032 0.621653
vt 0.000000 0.363997
vt 0.500000 0.363997
vt 0.039451 0.636003
vt 0.000000 0.636003
vt 0.729782 0.733720
vt 0.736032 0.733720
vt 0.753532 0.690810
vt 0.753532 0.596968
vt 0.756032 0.596968
vt 0.756032 0.690810
vt 0.720669 0.509113
vt 0.509113 0.509113
vt 0.500000 0.500000
vt 0.729782 0.500000
vt 0.509113 0.602954
vt 0.720669 0.602954
vt 0.499221 1.000000
vt 0.499221 1.000000
vt 0.515313 1.000000
vt 0.305285 1.000000
vt 0.721736 0.725674
vt 0.721736 0.628706
vt 0.729782 0.733720
vt 0.508046 0.628706
vt 0.753532 0.500000
vt 0.756032 0.500000
vt 0.753532 0.500000
vt 0.753532 0.711557
vt 0.751032 0.711557
vt 0.751032 0.500000
vt 0.253782 1.000000
vt 0.253782 1.000000
vt 0.066098 1.000000
s 0
usemtl Floor
f 11/1/1 2/2/1 4/3/1 12/4/1
f 1/16/1 8/17/1 9/18/1 3/19/1
f 30/22/1 11/1/1 12/4/1 28/23/1
f 32/24/1 23/25/1 46/26/1 49/27/1
f 33/41/3 34/42/3 53/43/3 52/44/3
f 37/48/5 17/49/5 43/49/5 44/50/5
f 17/51/3 22/52/3 42/47/3 43/46/3
f 18/53/5 31/54/5 48/55/5 47/53/5
f 38/62/1 32/24/1 49/27/1 45/63/1
f 41/64/1 30/22/1 28/23/1 35/65/1
f 8/17/1 41/64/1 35/65/1 9/18/1
f 22/68/1 38/62/1 45/63/1 42/69/1
f 24/70/1 40/71/1 57/72/1 54/73/1
f 31/54/5 37/48/5 44/50/5 48/55/5
f 27/80/5 33/83/5 52/83/5 51/80/5
f 34/71/1 26/88/1 50/89/1 53/72/1
f 25/90/3 24/91/3 54/92/3 55/93/3
f 40/94/4 39/95/4 56/95/4 57/94/4
f 39/95/5 25/96/5 55/96/5 56/95/5
usemtl Wall
f 18/5/2 15/6/2 7/7/2 13/8/2
f 16/9/3 14/10/3 6/11/3 5/12/3
f 14/13/2 17/14/2 10/15/2 6/16/2
f 31/20/2 18/5/2 13/8/2 29/21/2
f 19/28/2 22/29/2 17/14/2 14/13/2
f 20/30/3 19/31/3 14/10/3 16/9/3
f 23/32/2 21/33/2 15/6/2 18/5/2
f 12/34/2 4/35/2 21/33/2 23/32/2
f 1/36/3 3/37/3 19/31/3 20/30/3
f 3/19/2 9/38/2 22/29/2 19/28/2
f 28/39/2 12/34/2 23/32/2 32/40/2
f 23/45/4 18/26/4 47/46/4 46/47/4
f 45/56/2 49/57/2 48/58/2 44/59/2
f 35/60/2 28/39/2 32/40/2 38/61/2
f 37/66/2 31/20/2 29/21/2 36/67/2
f 17/14/2 37/66/2 36/67/2 10/15/2
f 9/38/2 35/60/2 38/61/2 22/29/2
f 26/81/4 27/80/4 51/80/4 50/81/4
usemtl Frame
f 24/74/2 25/75/2 43/76/2 42/77/2
f 25/75/2 39/78/2 44/59/2 43/76/2
f 40/79/2 24/74/2 42/77/2 45/56/2
f 39/78/2 40/79/2 45/56/2 44/59/2
f 27/80/2 26/81/2 46/82/2 47/53/2
f 33/83/2 27/80/2 47/53/2 48/55/2
f 26/84/2 34/85/2 49/57/2 46/86/2
f 34/85/2 33/87/2 48/58/2 49/57/2
