# OBJ generated by ONSHAPE BY PTC INC, 1.193 Units = meters
mtllib Desk.mtl
g Part 1
v 0.985 -0.885 -0.1725 
v 0.985 -0.885 -0.425 
v 0.5 -0.885 -0.425 
v 0.5 -0.885 -0.1725 
v 0.985 -0.435 -0.1725 
v 0.985 -0.435 -0.425 
v 0.5 -0.435 -0.1725 
v 0.5 -0.435 -0.425 
v 0.5 0.285 -0.1725 
v 0.5 -0.42 -0.1725 
v 0.5 -0.0075 -0.1575 
v 0.5 0.0075 -0.1575 
v 0.5 -0.435 -0.44 
v 0.5 0.3 -0.7075 
v 0.5 0.285 -0.6925 
v 0.5 0.285 -0.44 
v 0.5 -0.435 -0.6925 
v 0.5 -0.42 -0.6925 
v 0.5 0.3 -0.1575 
v 0.5 -0.885 -0.44 
v 0.5 -0.42 -0.44 
v 0.5 -0.42 -0.425 
v 0.5 -0.9 -0.1575 
v 0.5 0.285 -0.425 
v 0.5 -0.9 -0.7075 
v 0.5 -0.885 -0.6925 
v 0.985 0.285 -0.6925 
v 0.985 0.285 -0.44 
v 0.985 -0.42 -0.6925 
v 0.985 -0.42 -0.44 
v 0.985 -0.42 -0.1725 
v 0.985 -0.42 -0.425 
v 0.985 0.285 -0.1725 
v 0.985 0.285 -0.425 
v 0.985 -0.885 -0.6925 
v 0.985 -0.885 -0.44 
v 0.985 -0.435 -0.6925 
v 0.985 -0.435 -0.44 
v 1 -0.9 -0.7075 
v 1 -0.9 -0.1575 
v 1 0.3 -0.7075 
v 1 -0.3 -0.1575 
v 1 0.3 0.0075 
v 1 -0.3 0.0075 
v -1 -0.3 0.0075 
v -1 0.3 0.0075 
v -1 0.3 -0.7075 
v -1 -0.3 -0.7075 
v -0.985 0.3 -0.7075 
v -0.985 -0.3 -0.7075 
v -0.985 0.3 -0.0075 
v 0.985 0.3 -0.0075 
v 0.985 0.3 -0.1575 
v 0.985 0.0075 -0.0075 
v -0.985 0.0075 -0.0075 
v 0.985 0.0075 -0.1575 
v -0.985 0.0075 -0.1575 
v -0.985 -0.0075 -0.1575 
v -0.985 -0.3 -0.0075 
v -0.985 -0.0075 -0.0075 
v 0.985 -0.3 -0.0075 
v 0.985 -0.3 -0.1575 
v 0.985 -0.0075 -0.1575 
v 0.985 -0.0075 -0.0075 
vn 0 1 0 
vn -1 4.93432e-16 0 
vn 0 -1 0 
vn 0 0 -1 
vn 0 0 1 
vn -1 0 0 
vn -2.28912e-16 -1 0 
vn 0 1 0 
vn -1 3.14957e-16 0 
vn 0 0 1 
vn 0 0 -1 
vn 0 1 0 
vn -1 3.14957e-16 0 
vn -2.28912e-16 -1 0 
vn 0 0 -1 
vn 0 0 1 
vn 0 1 0 
vn -1 4.93432e-16 0 
vn 0 -1 0 
vn 0 0 1 
vn 0 0 -1 
vn 0 -1 0 
vn 1 0 0 
vn 0 0 1 
vn -1 0 0 
vn 0 0 -1 
vn 0 1 0 
vn -1 3.79563e-16 0 
vn 0 0 1 
vn 0 0 -1 
vn 1 0 0 
vn 0 -1 0 
vn 0 0 1 
vn 0 0 -1 
vn -1 3.79563e-16 0 
usemtl 0.262745_0.141176_0.000000_0.000000_0.000000
o mesh0
f 1//1 2//1 3//1 
f 3//1 4//1 1//1 
o mesh1
f 5//2 6//2 2//2 
f 2//2 1//2 5//2 
o mesh2
f 5//3 7//3 8//3 
f 8//3 6//3 5//3 
o mesh3
f 1//4 4//4 7//4 
f 7//4 5//4 1//4 
o mesh4
f 2//5 6//5 8//5 
f 8//5 3//5 2//5 
o mesh5
f 9//6 10//6 11//6 
f 11//6 12//6 9//6 
f 8//6 7//6 10//6 
f 10//6 7//6 11//6 
f 3//6 8//6 13//6 
f 14//6 15//6 16//6 
f 14//6 17//6 18//6 
f 12//6 19//6 9//6 
f 13//6 20//6 3//6 
f 18//6 15//6 14//6 
f 21//6 18//6 17//6 
f 16//6 21//6 22//6 
f 8//6 22//6 13//6 
f 23//6 4//6 3//6 
f 17//6 13//6 21//6 
f 22//6 24//6 16//6 
f 3//6 20//6 23//6 
f 23//6 11//6 7//6 
f 19//6 16//6 24//6 
f 21//6 13//6 22//6 
f 7//6 4//6 23//6 
f 16//6 19//6 14//6 
f 24//6 9//6 19//6 
f 25//6 26//6 17//6 
f 17//6 14//6 25//6 
f 25//6 23//6 20//6 
f 20//6 26//6 25//6 
f 10//6 22//6 8//6 
o mesh6
f 27//7 28//7 16//7 
f 16//7 15//7 27//7 
o mesh7
f 29//8 18//8 21//8 
f 21//8 30//8 29//8 
o mesh8
f 27//9 29//9 30//9 
f 30//9 28//9 27//9 
o mesh9
f 15//10 18//10 29//10 
f 29//10 27//10 15//10 
o mesh10
f 28//11 30//11 21//11 
f 21//11 16//11 28//11 
o mesh11
f 31//12 32//12 22//12 
f 22//12 10//12 31//12 
o mesh12
f 33//13 34//13 32//13 
f 32//13 31//13 33//13 
o mesh13
f 33//14 9//14 24//14 
f 24//14 34//14 33//14 
o mesh14
f 10//15 9//15 33//15 
f 33//15 31//15 10//15 
o mesh15
f 34//16 24//16 22//16 
f 22//16 32//16 34//16 
o mesh16
f 35//17 26//17 20//17 
f 20//17 36//17 35//17 
o mesh17
f 37//18 35//18 36//18 
f 36//18 38//18 37//18 
o mesh18
f 37//19 38//19 13//19 
f 13//19 17//19 37//19 
o mesh19
f 17//20 26//20 35//20 
f 35//20 37//20 17//20 
o mesh20
f 36//21 20//21 13//21 
f 13//21 38//21 36//21 
o mesh21
f 39//22 40//22 23//22 
f 23//22 25//22 39//22 
o mesh22
f 39//21 25//21 14//21 
f 14//21 41//21 39//21 
o mesh23
f 39//23 41//23 42//23 
f 43//23 44//23 42//23 
f 42//23 41//23 43//23 
f 42//23 40//23 39//23 
o mesh24
f 45//24 44//24 43//24 
f 43//24 46//24 45//24 
o mesh25
f 45//25 46//25 47//25 
f 47//25 48//25 45//25 
o mesh26
f 48//26 47//26 49//26 
f 49//26 50//26 48//26 
o mesh27
f 47//27 46//27 51//27 
f 46//27 43//27 52//27 
f 52//27 51//27 46//27 
f 43//27 41//27 53//27 
f 53//27 52//27 43//27 
f 14//27 19//27 53//27 
f 53//27 41//27 14//27 
f 51//27 49//27 47//27 
o mesh28
f 51//26 52//26 54//26 
f 54//26 55//26 51//26 
o mesh29
f 55//27 54//27 12//27 
f 54//27 56//27 12//27 
f 12//27 57//27 55//27 
o mesh30
f 56//28 54//28 52//28 
f 52//28 53//28 56//28 
o mesh31
f 53//29 19//29 12//29 
f 12//29 56//29 53//29 
o mesh32
f 58//30 57//30 12//30 
f 12//30 11//30 58//30 
o mesh33
f 59//31 50//31 58//31 
f 50//31 49//31 57//31 
f 57//31 58//31 50//31 
f 51//31 55//31 57//31 
f 57//31 49//31 51//31 
f 58//31 60//31 59//31 
o mesh34
f 44//32 45//32 59//32 
f 48//32 50//32 59//32 
f 42//32 44//32 61//32 
f 59//32 45//32 48//32 
f 59//32 61//32 44//32 
f 61//32 62//32 42//32 
o mesh35
f 11//33 23//33 62//33 
f 40//33 42//33 62//33 
f 62//33 23//33 40//33 
f 62//33 63//33 11//33 
o mesh36
f 60//32 58//32 11//32 
f 11//32 64//32 60//32 
f 11//32 63//32 64//32 
o mesh37
f 61//34 59//34 60//34 
f 60//34 64//34 61//34 
o mesh38
f 62//35 61//35 64//35 
f 64//35 63//35 62//35 
